HIERARCHY
ROOT Hips
{
	OFFSET 0.000000 0.000000 0.000000 
	CHANNELS 6 Xposition Yposition Zposition Yrotation Zrotation Xrotation 
	JOINT Lumbar
	{
		OFFSET 0.000000 0.000000 0.000000 
		CHANNELS 3 Zrotation Xrotation Yrotation
		JOINT Neck
		{
			OFFSET 0.000000 0.445665 0.000000 
			CHANNELS 3 Zrotation Xrotation Yrotation
			End Site
			{
				OFFSET 0.000000 0.227535 0.000000 
			}
		}
		JOINT RightShoulder
		{
			OFFSET 0.019635 0.377685 0.194865 
			CHANNELS 3 Zrotation Xrotation Yrotation
			JOINT RightElbow
			{
				OFFSET 0.000000 -0.243375 0.000000 
				CHANNELS 2 Zrotation Yrotation
				JOINT RightWrist
				{
					OFFSET 0.000000 -0.264825 0.000000 
					CHANNELS 2 Zrotation Xrotation
					End Site
					{
						OFFSET 0.006600 -0.176220 0.000990 
					}
				}
			}
		}
		JOINT LeftShoulder
		{
			OFFSET 0.019635 0.377685 -0.194865 
			CHANNELS 3 Zrotation Xrotation Yrotation
			JOINT LeftElbow
			{
				OFFSET 0.000000 -0.243375 0.000000 
				CHANNELS 2 Zrotation Yrotation
				JOINT LeftWrist
				{
					OFFSET 0.000000 -0.264825 0.000000 
					CHANNELS 2 Zrotation Xrotation
					End Site
					{
						OFFSET 0.006600 -0.176220 -0.000990 
					}
				}
			}
		}
	}
	JOINT RightHip
	{
		OFFSET 0.052140 -0.069960 0.075570 
		CHANNELS 3 Zrotation Xrotation Yrotation
		JOINT RightKnee
		{
			OFFSET 0.000000 -0.402270 0.000000 
			CHANNELS 1 Zrotation
			JOINT RightAnkle
			{
				OFFSET 0.000000 -0.404085 0.000000 
				CHANNELS 3 Zrotation Xrotation Yrotation
				End Site
				{
					OFFSET 0.204105 -0.089430 0.008415 
				}
			}
		}
	}
	JOINT LeftHip
	{
		OFFSET 0.052140 -0.069960 -0.075570 
		CHANNELS 3 Zrotation Xrotation Yrotation
		JOINT LeftKnee
		{
			OFFSET 0.000000 -0.402270 0.000000 
			CHANNELS 1 Zrotation
			JOINT LeftAnkle
			{
				OFFSET 0.000000 -0.404085 0.000000 
				CHANNELS 3 Zrotation Xrotation Yrotation
				End Site
				{
					OFFSET 0.204105 -0.089430 -0.008415 
				}
			}
		}
	}
}
MOTION
Frames: 30
Frame Time: 0.02
0.00059 -0.00585 -0.01663 182.24603 -44.99955 1.5697 54.11534 0.20276 2.33854 -9.71026 -0.57795 -2.11994 -34.64539 -7.35697 4.58342 132.77114 113.18195 -40.68471 -6.87255 -30.27379 9.63847 -2.7283 97.6873 -81.16819 -11.99724 2.82743 46.22445 -8.69749 -4.15129 -26.85597 -6.86377 -2.85692 -3.62864 51.53569 5.44043 4.53552 -25.00202 -7.27906 2.35602 3.40956
0.00124 -0.00622 -0.01089 181.93648 -44.66717 1.55934 53.68391 0.20334 2.2511 -10.04028 -0.54155 -2.11994 -34.10864 -7.31636 4.70165 132.53625 110.43026 -39.28796 -6.59507 -30.16622 9.87941 -3.08468 97.71719 -81.03146 -12.21943 2.29175 46.81693 -9.2774 -4.09939 -28.34739 -6.88312 -2.76942 -3.58606 51.14188 4.92224 3.95629 -25.1191 -7.25472 2.47631 3.46643
0.00219 -0.00672 -0.00505 181.69941 -44.28656 1.58207 53.16148 0.19102 2.15749 -10.32624 -0.53489 -2.11994 -33.8101 -7.31173 4.8309 132.31146 107.62261 -37.72866 -6.27975 -29.90368 10.19948 -3.55971 97.69258 -80.88821 -12.47434 1.64512 47.53318 -9.88852 -3.94522 -30.11669 -6.91408 -2.68054 -3.54369 50.71668 4.3778 3.36804 -25.25149 -7.23441 2.59135 3.52151
0.00304 -0.00716 0.00069 181.42476 -43.92032 1.58536 52.6705 0.18336 2.05673 -10.62632 -0.51347 -2.11994 -33.40754 -7.29944 4.9697 132.07055 104.82545 -36.27054 -5.98027 -29.71647 10.49537 -3.98773 97.70293 -80.64094 -12.73488 1.05795 48.20881 -10.48027 -3.83687 -31.78638 -6.94194 -2.59007 -3.50036 50.30208 3.85662 2.8076 -25.37689 -7.21171 2.70644 3.57621
0.00377 -0.00761 0.00665 181.16774 -43.58311 1.60799 52.21835 0.18027 1.99856 -10.94952 -0.49539 -2.11994 -32.96354 -7.2565 5.05723 131.8755 102.0719 -34.68663 -5.69186 -29.50411 10.74328 -4.39107 97.67136 -80.81252 -12.91324 0.42881 48.82329 -11.10115 -3.74355 -33.35961 -6.96063 -2.50644 -3.45948 49.90071 3.28391 2.13861 -25.50335 -7.1911 2.8328 3.63657
0.00481 -0.00805 0.01216 180.89273 -43.17715 1.59717 51.66688 0.16515 1.85047 -11.21503 -0.47836 -2.11994 -32.67373 -7.28351 5.24651 131.58832 99.22211 -33.31952 -5.36779 -29.30858 11.11048 -4.87247 97.71276 -80.14653 -13.25786 -0.13654 49.59 -11.66342 -3.59331 -35.18276 -7.0003 -2.40976 -3.41423 49.46666 2.81525 1.69766 -25.63021 -7.16727 2.93358 3.68432
0.00672 -0.00845 0.01651 180.5412 -42.56791 1.49531 50.83901 0.11513 1.45018 -11.32884 -0.45455 -2.11994 -32.72312 -7.49655 5.76032 131.04498 96.12524 -32.72233 -4.97574 -29.20323 11.77184 -5.53716 97.98145 -76.8755 -14.18847 -0.51454 50.77917 -12.08775 -3.26873 -37.75809 -7.10615 -2.27049 -3.35417 48.93204 2.62116 1.87779 -25.7626 -7.1327 2.96897 3.69954
0.00891 -0.00881 0.02037 180.17099 -41.89627 1.35719 49.91942 0.05423 0.96082 -11.38677 -0.43152 -2.11994 -32.92713 -7.7778 6.36663 130.40868 92.94217 -32.32757 -4.54601 -29.11994 12.55241 -6.27571 98.32335 -72.81764 -15.26068 -0.82156 52.11044 -12.44539 -2.89574 -40.54832 -7.231 -2.11974 -3.29039 48.3693 2.53627 2.2902 -25.89326 -7.09497 2.97796 3.70173
0.01092 -0.00916 0.02437 179.81543 -41.26941 1.22913 49.05732 0.00161 0.51519 -11.47277 -0.4099 -2.11994 -33.08267 -8.02559 6.89944 129.81506 89.7892 -31.75722 -4.11738 -29.0233 13.2892 -6.98257 98.62328 -69.31319 -16.18149 -1.14985 53.35586 -12.81243 -2.57055 -43.15717 -7.33972 -1.97895 -3.23014 47.83099 2.41457 2.60523 -26.01943 -7.05923 2.9962 3.70854
0.0132 -0.00963 0.0287 179.4362 -40.57013 1.12812 48.1234 -0.06506 0.05423 -11.54654 -0.38162 -2.11994 -33.15661 -8.28423 7.5657 129.22055 86.64371 -31.53392 -3.74958 -28.9346 13.98757 -7.6879 98.95716 -64.98075 -17.47314 -1.52701 54.69764 -13.26944 -2.13411 -46.13831 -7.47956 -1.81778 -3.16192 47.24132 2.23891 2.88783 -26.16867 -7.02113 3.02565 3.72068
0.01495 -0.00984 0.03223 179.10111 -40.00924 0.96323 47.32084 -0.1055 -0.39412 -11.6323 -0.36729 -2.11994 -33.43109 -8.53711 7.97565 128.6049 83.49877 -30.63777 -3.2536 -28.83738 14.78992 -8.40966 99.23955 -62.18728 -18.02266 -1.78586 55.86806 -13.52214 -1.91797 -48.38005 -7.56009 -1.6967 -3.10965 46.75371 2.20055 3.29009 -26.26891 -6.98734 3.02584 3.7188
0.01526 -0.00934 0.03374 178.89023 -39.83114 0.61803 46.88394 -0.06555 -0.80064 -11.77197 -0.38893 -2.11994 -34.24795 -8.74656 7.65735 127.96172 80.06796 -27.83947 -2.35177 -28.70586 15.87746 -9.18105 99.35172 -63.82386 -16.51602 -1.71888 56.55341 -13.23236 -2.33256 -48.62477 -7.46208 -1.686 -3.10038 46.54307 2.52652 3.99395 -26.23729 -6.96462 2.94909 3.68013
0.015 -0.00859 0.03445 178.72449 -39.79727 0.21221 46.58653 0.00028 -1.18833 -11.92462 -0.4248 -2.11994 -35.25508 -8.94915 7.07836 127.29979 76.6963 -24.35832 -1.33299 -28.56688 17.05946 -9.96145 99.41137 -67.03589 -14.25449 -1.53753 57.05639 -12.73839 -2.96919 -48.10008 -7.30546 -1.71641 -3.10754 46.43815 2.98476 4.80514 -26.15587 -6.94661 2.84432 3.62808
0.01495 -0.00796 0.03548 178.53919 -39.70743 -0.15791 46.2385 0.05082 -1.57532 -12.06681 -0.45569 -2.11994 -36.15682 -9.16245 6.61608 126.63995 73.50317 -21.18545 -0.40905 -28.4355 18.18071 -10.72271 99.50239 -69.53813 -12.31743 -1.41915 57.62737 -12.33381 -3.4975 -47.86028 -7.18234 -1.73032 -3.10859 46.29309 3.37479 5.54875 -26.09507 -6.92752 2.75407 3.583
0.01515 -0.00731 0.03668 178.34919 -39.57564 -0.56451 45.8332 0.11575 -2.00573 -12.22599 -0.48074 -2.11994 -37.14459 -9.34828 6.16071 126.00038 69.44935 -18.02251 0.68884 -28.28666 19.38382 -11.55097 99.56559 -71.99825 -10.45481 -1.25305 58.26666 -11.94006 -4.05468 -47.89465 -7.03123 -1.73552 -3.1042 46.11496 3.80295 6.37946 -26.04234 -6.90396 2.65527 3.53365
0.01466 -0.00664 0.03732 178.17998 -39.56543 -0.90803 45.58165 0.15714 -2.33851 -12.35397 -0.52084 -2.11994 -37.99557 -9.58606 5.63257 125.31992 67.1914 -14.68121 1.45597 -28.17261 20.43431 -12.2398 99.67165 -74.91612 -8.26733 -1.15868 58.71792 -11.47769 -4.60594 -47.18116 -6.92385 -1.76766 -3.11456 46.02957 4.18149 7.0517 -25.96145 -6.89072 2.5681 3.49026
0.01248 -0.0059 0.03664 178.05675 -39.86357 -1.07122 45.72023 0.12635 -2.41907 -12.38948 -0.6029 -2.11994 -38.42697 -9.99266 4.92539 124.49161 69.9781 -10.95546 1.24288 -28.15297 21.06398 -12.54839 99.92295 -78.8407 -5.26934 -1.30285 58.69801 -10.86232 -5.0781 -44.51427 -6.95475 -1.87412 -3.16652 46.18824 4.39205 7.25444 -25.81099 -6.90609 2.51881 3.46604
0.00962 -0.00516 0.03539 177.95298 -40.2778 -1.16715 46.00923 0.07138 -2.39918 -12.39397 -0.69882 -2.11994 -38.71209 -10.44734 4.16091 123.63012 74.54826 -7.0858 0.69904 -28.16936 21.53099 -12.7139 100.21618 -83.15191 -1.98801 -1.52124 58.49357 -10.18758 -5.53729 -41.13521 -7.03091 -2.00472 -3.23197 46.43395 4.54744 7.29373 -25.63465 -6.93149 2.48254 3.44848
0.00702 -0.00444 0.03436 177.84071 -40.63419 -1.28782 46.2301 0.02787 -2.41644 -12.41504 -0.78588 -2.11994 -39.06073 -10.86369 3.45022 122.81088 78.24124 -3.31715 0.33255 -28.17122 22.05731 -12.94094 100.48071 -87.20559 1.09986 -1.69768 58.37088 -9.54951 -6.00968 -38.13033 -7.0842 -2.11749 -3.28792 46.63113 4.72645 7.41058 -25.47277 -6.95144 2.44111 3.42832
0.00458 -0.00361 0.0335 177.7288 -41.0176 -1.43472 46.45501 -0.01744 -2.46896 -12.42619 -0.88444 -2.11994 -39.43007 -11.34803 2.61507 121.87839 82.23242 0.6338 -0.1407 -28.16427 22.65189 -13.18625 100.78436 -91.65784 4.48681 -1.90443 58.25166 -8.86429 -6.46372 -34.88237 -7.14543 -2.25966 -3.35822 46.87068 4.91571 7.51809 -25.29774 -6.9752 2.3954 3.40586
0.00166 -0.00302 0.03214 177.61985 -41.36971 -1.51085 46.7052 -0.0642 -2.42446 -12.45028 -0.9619 -2.11994 -39.71723 -11.70401 2.02674 121.17141 86.00682 4.22 -0.47577 -28.18526 23.06042 -13.35546 101.01692 -95.35299 7.30869 -2.06761 58.08269 -8.26466 -6.94399 -31.98541 -7.20131 -2.34703 -3.4022 47.04024 5.06949 7.60403 -25.1446 -6.9935 2.36216 3.38999
-0.00237 -0.00308 0.02965 177.517 -41.61243 -1.40222 46.98979 -0.1168 -2.13672 -12.51916 -0.9799 -2.11994 -39.82706 -11.67748 2.15342 121.1185 88.90923 6.84998 -0.31292 -28.26671 23.0284 -13.38279 101.04561 -96.84217 8.49399 -2.08921 57.83105 -7.92761 -7.55266 -30.20269 -7.23434 -2.26598 -3.36505 47.00365 5.1324 7.67637 -25.05898 -6.99274 2.35941 3.39037
-0.00685 -0.00337 0.02667 177.41582 -41.81784 -1.22559 47.29365 -0.16869 -1.75535 -12.6017 -0.97569 -2.11994 -39.85537 -11.5225 2.52762 121.28885 91.50457 9.08918 -0.00619 -28.37663 22.80816 -13.33213 101.00145 -97.55242 9.0987 -2.06557 57.53472 -7.67778 -8.17876 -28.80718 -7.26018 -2.13059 -3.30172 46.89158 5.16231 7.73103 -24.99664 -6.9864 2.36899 3.39726
-0.01115 -0.00356 0.02387 177.31179 -42.03616 -1.0834 47.58718 -0.21594 -1.41631 -12.67702 -0.98017 -2.11994 -39.91136 -11.43787 2.77776 121.34262 94.12904 11.44629 0.21008 -28.47858 22.6515 -13.29544 100.98867 -98.62462 9.9695 -2.06526 57.25367 -7.38113 -8.75913 -27.25729 -7.28766 -2.02748 -3.25382 46.8079 5.21051 7.78919 -24.92312 -6.98354 2.37359 3.40148
-0.01538 -0.00375 0.02123 177.21692 -42.27601 -0.92339 47.8929 -0.28498 -1.07278 -12.75584 -0.99117 -2.11994 -40.00322 -11.30706 3.07678 121.46154 97.26811 14.05756 0.51825 -28.56038 22.58136 -13.34479 100.9831 -99.67637 10.83974 -2.05572 56.98779 -7.11185 -9.49236 -25.59053 -7.32354 -1.89415 -3.19194 46.75194 5.24188 7.86057 -24.85024 -6.97696 2.37611 3.40481
-0.01985 -0.00399 0.01814 177.10356 -42.46022 -0.78593 48.17556 -0.30815 -0.72006 -12.83067 -0.98302 -2.11994 -40.00127 -11.23792 3.33078 121.49511 99.25656 16.04881 0.67658 -28.69095 22.28912 -13.19781 100.94657 -100.58219 11.57135 -2.05376 56.68149 -6.80802 -9.91958 -24.26901 -7.33963 -1.80938 -3.15223 46.61959 5.30256 7.90273 -24.78307 -6.97679 2.38557 3.41136
-0.02484 -0.00428 0.01406 176.93507 -42.50267 -0.72114 48.39101 -0.20507 -0.3449 -12.89414 -0.92846 -2.11994 -39.77481 -11.39973 3.42519 121.26619 97.98171 16.38484 0.36021 -28.94384 21.42572 -12.53393 100.82544 -101.26166 12.04545 -2.08416 56.28124 -6.37958 -9.42603 -23.8071 -7.30272 -1.88203 -3.18486 46.29096 5.44004 7.86515 -24.71671 -6.99468 2.41273 3.42586
-0.03004 -0.00461 0.00954 176.74873 -42.48928 -0.68264 48.58145 -0.05584 0.03218 -12.95268 -0.85533 -2.11994 -39.45518 -11.6226 3.46197 120.93947 95.57889 16.11624 -0.10569 -29.24501 20.34796 -11.67606 100.67833 -101.82525 12.40306 -2.124 55.84163 -5.91504 -8.63615 -23.6829 -7.24594 -2.00358 -3.23983 45.88861 5.61054 7.79984 -24.65757 -7.01938 2.44612 3.44323
-0.03514 -0.00493 0.00517 176.57256 -42.49909 -0.63682 48.78202 0.07276 0.39462 -13.01173 -0.78971 -2.11994 -39.16881 -11.79776 3.50807 120.63838 93.79136 16.14977 -0.4843 -29.52818 19.37031 -10.90204 100.5544 -102.44431 12.82177 -2.15804 55.41646 -5.47265 -8.03033 -23.40691 -7.19809 -2.09582 -3.28133 45.52167 5.77442 7.75075 -24.6008 -7.04155 2.47555 3.45879
-0.04028 -0.00524 0.001 176.38681 -42.51695 -0.57005 48.98925 0.20061 0.81798 -13.07873 -0.72645 -2.11994 -38.91606 -12.05165 3.6314 120.42106 91.56783 16.05664 -0.93878 -29.79829 18.37005 -10.13799 100.38118 -103.00975 13.18038 -2.19412 55.00377 -5.00945 -7.22131 -23.13626 -7.1504 -2.21544 -3.33567 45.14289 5.90241 7.68723 -24.51924 -7.06107 2.51008 3.47667
